<svg width="80" height="80" viewBox="0 0 80 80" fill="none" xmlns="http://www.w3.org/2000/svg">
<path d="M48.0833 43.3334L40 57.5C39.5556 58.2778 39.6389 58.9589 40.25 59.5434C40.8611 60.1256 41.5556 60.1945 42.3333 59.75L68.9167 42.8334C69.9722 42.1667 70.5 41.2222 70.5 40C70.5 38.7778 69.9722 37.8334 68.9167 37.1667L42.3333 20.25C41.5556 19.8056 40.8611 19.8745 40.25 20.4567C39.6389 21.0411 39.5556 21.7222 40 22.5L48.0833 36.6667H10C9.05556 36.6667 8.26445 36.9856 7.62667 37.6234C6.98667 38.2634 6.66667 39.0556 6.66667 40C6.66667 40.9445 6.98667 41.7356 7.62667 42.3734C8.26445 43.0134 9.05556 43.3334 10 43.3334H48.0833Z" fill="#85586F"/>
</svg>
