<svg width="80" height="80" viewBox="0 0 80 80" fill="none" xmlns="http://www.w3.org/2000/svg">
<path d="M31.9167 43.3334L40 57.5C40.4444 58.2778 40.3611 58.9589 39.75 59.5434C39.1389 60.1256 38.4444 60.1945 37.6667 59.75L11.0833 42.8334C10.0278 42.1667 9.5 41.2222 9.5 40C9.5 38.7778 10.0278 37.8334 11.0833 37.1667L37.6667 20.25C38.4444 19.8056 39.1389 19.8745 39.75 20.4567C40.3611 21.0411 40.4444 21.7222 40 22.5L31.9167 36.6667H70C70.9444 36.6667 71.7356 36.9856 72.3733 37.6234C73.0133 38.2634 73.3333 39.0556 73.3333 40C73.3333 40.9445 73.0133 41.7356 72.3733 42.3734C71.7356 43.0134 70.9444 43.3334 70 43.3334H31.9167Z" fill="#85586F"/>
</svg>
